<svg width="38" height="50" viewBox="0 0 38 50" fill="none" xmlns="http://www.w3.org/2000/svg">
<path d="M17.185 11.5475C17.3114 11.5478 17.4366 11.5233 17.5535 11.4752C17.6704 11.4271 17.7767 11.3565 17.8663 11.2674C17.9559 11.1782 18.0271 11.0723 18.0758 10.9556C18.1245 10.839 18.1497 10.7139 18.15 10.5875V10.53H17.4475V10.64H18.035C18.0242 10.8061 17.9649 10.9653 17.8644 11.098C17.7639 11.2307 17.6267 11.331 17.4698 11.3864C17.3128 11.4418 17.1431 11.4499 16.9816 11.4097C16.8201 11.3695 16.6739 11.2828 16.5612 11.1603C16.4485 11.0378 16.3743 10.885 16.3477 10.7207C16.3211 10.5564 16.3433 10.3879 16.4116 10.2361C16.4799 10.0843 16.5913 9.95592 16.7319 9.86685C16.8724 9.77777 17.0361 9.73193 17.2025 9.735H17.25V9.62H17.2C16.9529 9.63259 16.7201 9.73962 16.5496 9.91898C16.3791 10.0983 16.2841 10.3363 16.2841 10.5837C16.2841 10.8312 16.3791 11.0692 16.5496 11.2485C16.7201 11.4279 16.9529 11.5349 17.2 11.5475H17.185ZM16.825 10.3675C16.8542 10.3675 16.8827 10.3588 16.9069 10.3426C16.9312 10.3264 16.9501 10.3034 16.9613 10.2764C16.9724 10.2495 16.9754 10.2198 16.9697 10.1912C16.964 10.1626 16.9499 10.1363 16.9293 10.1157C16.9087 10.0951 16.8824 10.081 16.8538 10.0753C16.8252 10.0696 16.7955 10.0726 16.7686 10.0837C16.7416 10.0949 16.7186 10.1138 16.7024 10.1381C16.6862 10.1623 16.6775 10.1908 16.6775 10.22C16.6788 10.2581 16.6944 10.2942 16.7214 10.3211C16.7483 10.3481 16.7844 10.3638 16.8225 10.365M17.25 10.075H17.135V11.09H17.475V10.985H17.25V10.075ZM13.4 12.115C13.6625 12.175 16.3725 12.2 19.4475 12.17L25.04 12.1125L25.0975 10.3325L25.155 8.5425H19.18C15.895 8.5425 13.1475 8.6025 13.0725 8.6775C12.9513 9.24229 12.9059 9.82071 12.9375 10.3975C12.9375 11.8825 12.9675 11.9975 13.395 12.1025L13.4 12.115ZM23.7675 9.185C24.0925 9.185 24.325 9.27 24.325 9.4175C24.325 9.9375 24.075 10.5875 23.8825 10.5875C23.7775 10.5875 23.7525 10.3925 23.83 10.155C23.9183 9.86667 23.8875 9.76917 23.7375 9.8625C23.585 9.955 23.515 9.905 23.515 9.785C23.515 9.665 23.6725 9.56 23.8675 9.55C24.1025 9.55 24.0575 9.4725 23.7175 9.3675L23.195 9.2025L23.7675 9.185ZM23.21 11.4C23.4378 11.2433 23.7163 11.1781 23.99 11.2175C24.6125 11.2375 24.6175 11.245 24.1325 11.4C23.395 11.62 23.0625 11.62 23.2025 11.4H23.21ZM20.6675 9.8725C20.8179 9.87167 20.9651 9.91609 21.09 10C21.145 10.0424 21.1894 10.097 21.2197 10.1595C21.2501 10.2219 21.2656 10.2906 21.265 10.36H20.8475C20.8437 10.3129 20.8217 10.2692 20.7863 10.2379C20.7509 10.2067 20.7047 10.1904 20.6575 10.1925C20.495 10.1925 20.4075 10.3425 20.4075 10.59C20.4075 10.8375 20.505 10.995 20.6575 10.995C20.81 10.995 20.8625 10.92 20.8925 10.76H20.6425V10.465H21.2675V11.25H20.9275V11.13C20.8855 11.1863 20.8301 11.2313 20.7664 11.261C20.7027 11.2906 20.6327 11.304 20.5625 11.3C20.2125 11.3 19.9825 11.0175 19.9825 10.585C19.9657 10.4148 20.0166 10.2448 20.1242 10.1119C20.2319 9.97903 20.3875 9.8939 20.5575 9.875C20.5957 9.87058 20.6343 9.87058 20.6725 9.875M18.9 9.91H19.2975V10.925H19.89V11.265H18.89L18.9 9.91ZM17.2125 9.45C17.4375 9.45 17.6574 9.51671 17.8445 9.6417C18.0315 9.76669 18.1773 9.94435 18.2634 10.1522C18.3495 10.36 18.372 10.5888 18.3281 10.8094C18.2843 11.0301 18.1759 11.2328 18.0168 11.3918C17.8578 11.5509 17.6551 11.6593 17.4344 11.7031C17.2138 11.747 16.9851 11.7245 16.7772 11.6384C16.5693 11.5523 16.3917 11.4065 16.2667 11.2195C16.1417 11.0324 16.075 10.8125 16.075 10.5875C16.075 10.2858 16.1948 9.99649 16.4082 9.78316C16.6215 9.56984 16.9108 9.45 17.2125 9.45ZM26.1 11.8225C26.4317 12.0089 26.7997 12.1217 27.1789 12.1532C27.5581 12.1847 27.9396 12.1341 28.2975 12.005C28.4992 11.8307 28.6645 11.6182 28.7839 11.3798C28.9033 11.1414 28.9745 10.8818 28.9933 10.6158C29.0121 10.3498 28.9782 10.0828 28.8936 9.82996C28.8089 9.57713 28.6752 9.34351 28.5 9.1425C28.4065 9.03916 28.3044 8.94383 28.195 8.8575C27.9029 8.63253 27.5351 8.52951 27.1686 8.57007C26.8022 8.61062 26.4658 8.79161 26.23 9.075C25.77 9.5325 25.7075 9.725 25.8025 10.61C25.8155 11.0306 25.9169 11.4437 26.1 11.8225ZM27.525 9.435C27.6675 9.435 27.775 9.6375 27.775 9.885C27.7716 9.99992 27.7987 10.1137 27.8536 10.2147C27.9085 10.3157 27.9892 10.4004 28.0875 10.46C28.35 10.555 28.35 10.665 28.1775 11.0025C28.005 11.34 27.7925 11.4075 27.305 11.3625C26.77 11.31 26.6525 11.21 26.645 10.7875C26.645 10.205 27.13 9.4325 27.515 9.4325L27.525 9.435ZM9.9025 12C10.79 12.3675 11.9025 12.105 12.1525 11.465C12.2951 11.1003 12.3582 10.7093 12.3375 10.3183C12.3168 9.92724 12.2128 9.54512 12.0325 9.1975C11.708 8.90776 11.2929 8.73984 10.8583 8.72251C10.4236 8.70518 9.99649 8.83951 9.65 9.1025C8.82 10.045 8.955 11.6025 9.9 12M9.98 10.455C10.0814 10.3907 10.1638 10.3005 10.2188 10.1937C10.2737 10.0869 10.2992 9.9674 10.2925 9.8475C10.2925 9.265 10.565 9.2275 11.075 9.7425C11.3975 10.0675 11.4625 10.455 11.325 11.2425C11.325 11.325 11.0275 11.395 10.7 11.395C9.9875 11.395 9.4225 10.66 9.97 10.4575L9.98 10.455ZM37.23 28.365V6.8175L36.1475 4.0675C35.764 3.04627 35.3292 2.04501 34.845 1.0675C32.973 0.730565 31.0643 0.64648 29.17 0.8175C23.9925 0.8175 23.7075 0.7975 23.3125 0.4125C22.9175 0.0274999 22.635 0 19.07 0C15.545 0 15.195 0.0350003 14.72 0.4075C14.245 0.78 13.895 0.8125 8.72 0.8125C6.81709 0.619263 4.8962 0.703476 3.0175 1.0625C2.53907 2.11338 2.12171 3.19101 1.7675 4.29L0.75 7.29V49.8225L1.2075 49.9325C1.47 49.9925 9.67 50.0175 19.4575 49.9875L37.245 49.9325L37.23 28.365ZM32.25 5.545C31.2959 5.57745 30.3413 5.4935 29.4075 5.295C29.4075 5.1975 29.615 5.0775 29.8625 5.045C31.43 4.87755 33.0118 4.89601 34.575 5.1C35.625 5.495 35.04 5.6 32.2575 5.5475L32.25 5.545ZM34.5975 6.325C34.6825 6.455 33.9825 6.52 32.6325 6.5025C31.1675 6.4825 30.75 6.43 31.25 6.325C32.3501 6.09036 33.4874 6.09036 34.5875 6.325H34.5975ZM25.25 2.4425C27.3728 2.19419 29.5172 2.19419 31.64 2.4425C31.8325 2.565 31.9875 2.555 32.075 2.4125C32.1625 2.27 32.4925 2.2475 32.995 2.345C34.42 2.595 33.16 2.7825 29.245 2.8325C25.6125 2.885 25.015 2.8325 25.245 2.4425M24.245 2.9975C24.45 2.79 24.555 2.835 24.4125 3.0675C24.15 3.475 24.9125 3.9275 25.59 3.79C27.3511 3.49765 29.1426 3.43379 30.92 3.6L33.1525 3.7625L31.75 4.1C30.7923 4.39432 29.7714 4.4151 28.8025 4.16C26.8025 3.795 26.495 3.795 26.635 4.16C26.7225 4.39 26.5875 4.41 25.995 4.3475C24.8325 4.185 24.1275 3.8475 24.1275 3.4725C24.1147 3.29927 24.1624 3.12696 24.2625 2.985L24.245 2.9975ZM25.0275 5.4975C24.66 5.4975 24.3125 5.6125 24.245 5.7475C24.1775 5.8825 24.14 5.8975 24.1275 5.6875C24.1328 5.48013 24.2137 5.28185 24.355 5.13C25.1124 4.83773 25.9471 4.81391 26.72 5.0625C27.0275 5.2525 26.105 5.495 25.01 5.495L25.0275 5.4975ZM23.3225 5.8175C23.5325 6.0675 23.0275 6.11 19.56 6.0975C15.67 6.0975 14.4825 5.98 15.2375 5.7175C15.42 5.65 17.26 5.5825 19.3225 5.56C22.365 5.53 23.11 5.58 23.3225 5.81V5.8175ZM21.275 1.4775C21.6675 1.4775 21.825 1.52 21.63 1.5725C21.3958 1.62101 21.1542 1.62101 20.92 1.5725C20.71 1.52 20.8725 1.4775 21.2625 1.4775H21.275ZM18.43 1.4775C19.045 1.4775 19.295 1.5175 18.9875 1.565C18.6162 1.60676 18.2413 1.60676 17.87 1.565C17.5475 1.53 17.8025 1.49 18.4175 1.49L18.43 1.4775ZM14.4675 3.785C14.5625 3.06 14.77 2.8175 14.77 3.4325C14.77 4.2325 15.27 3.7725 15.4275 2.825C15.6075 1.7625 15.725 1.4175 15.91 1.4175C15.9825 1.4175 15.995 1.775 15.9375 2.2C15.8587 2.55157 15.9028 2.91953 16.0625 3.2425C16.2392 3.42917 16.2317 3.46583 16.04 3.3525C15.9025 3.275 15.79 3.305 15.79 3.4225C16.819 3.68006 17.8854 3.75369 18.94 3.64C19.9954 3.75399 21.0627 3.68036 22.0925 3.4225C22.0925 3.305 21.9775 3.275 21.83 3.3525C21.6275 3.4675 21.6275 3.44 21.83 3.2225C22.0141 2.90036 22.105 2.53334 22.0925 2.1625C22.0925 1.6925 22.17 1.4275 22.295 1.505C22.4574 1.77913 22.5284 2.09786 22.4975 2.415C22.4975 3.3975 22.6625 3.8425 23.02 3.8425C23.175 3.8425 23.3025 3.93 23.3025 4.0375C21.8286 4.2684 20.3354 4.35215 18.845 4.2875L14.39 4.345L14.4675 3.785ZM14.16 3.96C14.16 4.21 13.8525 4.2625 12.5975 4.2575C11.1275 4.2575 11.0525 4.23 11.5275 3.96C12.215 3.5675 14.1475 3.5675 14.1475 3.96H14.16ZM13.75 5.75C13.277 5.54939 12.7615 5.4695 12.25 5.5175C11.3825 5.5175 11.1075 5.455 11.325 5.3175C11.7284 5.16792 12.1576 5.09994 12.5875 5.1175C13.37 5.1175 13.5875 5.195 13.7825 5.57C13.9775 5.945 13.9575 5.975 13.735 5.7625L13.75 5.75ZM13.63 2.43C13.69 2.5275 13.005 2.68 12.13 2.7475C9.68641 2.9027 7.23322 2.79542 4.8125 2.4275C7.7505 2.19728 10.702 2.19728 13.64 2.4275L13.63 2.43ZM10.19 4.775C9.92653 4.87962 9.64135 4.9177 9.35966 4.88587C9.07797 4.85404 8.80847 4.75328 8.575 4.5925C8.21 4.3175 8.25 4.295 9.1 4.2975C9.49393 4.28418 9.88699 4.34263 10.26 4.47C10.4775 4.6 10.465 4.66 10.1925 4.765L10.19 4.775ZM4.19 4.155C4.64009 4.13165 5.08495 4.04756 5.5125 3.905C6.60503 3.63251 7.72937 3.50889 8.855 3.5375C9.2075 3.52 9.105 3.5875 8.605 3.75C8.175 3.88 7.8925 4.0575 7.98 4.14C7.23451 4.29401 6.46992 4.33363 5.7125 4.2575C4.3775 4.24 3.6975 4.19 4.2125 4.155H4.19ZM3.2825 5.25C3.615 5 4.2225 4.885 5.63 4.8375C6.6725 4.8 7.765 4.76 8.0475 4.7375C8.5 4.7075 8.4775 4.7375 7.84 5.0825C6.92792 5.43782 5.94947 5.59051 4.9725 5.53C2.9275 5.605 2.86 5.59 3.2775 5.2525L3.2825 5.25ZM1.5325 9.16C1.665 9.16 1.7625 8.9875 1.7625 8.775C1.76624 8.66938 1.79902 8.56683 1.85724 8.47863C1.91546 8.39042 1.99686 8.31997 2.0925 8.275C2.2675 8.2075 4.6725 8.145 7.4275 8.135C10.1825 8.125 12.9 8.05 13.4575 7.97L14.475 7.8225L13.0975 7.6575C12.3475 7.57 9.47 7.5275 6.715 7.57C2.835 7.6275 1.685 7.5875 1.62 7.3875C1.555 7.1875 2.2875 7.125 4.8525 7.125C7.0725 7.125 8.07 7.0575 7.8675 6.9275C7.23792 6.7638 6.58734 6.69554 5.9375 6.725C3.88 6.725 2.655 6.5325 3.025 6.2775C3.85034 6.13546 4.69024 6.09767 5.525 6.165C6.53167 6.08013 7.5439 6.24054 8.475 6.6325C9.1525 7.01 9.675 7.03 19.5525 7.0625C38.2275 7.125 36.5275 7.085 36.53 7.485C36.53 7.8175 36.23 7.835 32.31 7.735C30.195 7.68 28.0783 7.68 25.96 7.735L23.825 7.84L25.35 7.9875C26.185 8.065 28.795 8.185 31.1425 8.2375C32.7295 8.14113 34.322 8.28185 35.8675 8.655C36.6175 9.1375 36.39 9.365 35.6175 8.905C35.2615 8.64212 34.8184 8.52544 34.3791 8.5789C33.9398 8.63236 33.5376 8.85191 33.255 9.1925C33.0666 9.61873 32.9907 10.0862 33.0344 10.5501C33.0782 11.014 33.2402 11.459 33.505 11.8425C33.8437 12.0583 34.235 12.1772 34.6364 12.1865C35.0379 12.1958 35.4342 12.0949 35.7825 11.895C36.33 11.6075 36.3525 11.6175 36.305 12.05C36.2575 12.4825 36.2175 12.505 30.6475 12.6625C24.94 12.83 1.815 12.7075 1.62 12.5075C1.3594 11.4047 1.32876 10.2601 1.53 9.145L1.5325 9.16ZM36.3775 13.8225C36.336 13.9441 36.2649 14.0534 36.1706 14.1407C36.0764 14.228 35.9619 14.2904 35.8375 14.3225C34.9 14.5475 17.9125 14.705 10.2375 14.56C3.39 14.425 2.1 14.355 1.825 14.09C1.55 13.825 1.575 13.7525 1.785 13.61C1.9325 13.5175 9.8 13.44 19.2625 13.4375C36.1275 13.4375 36.4925 13.4375 36.3825 13.8225H36.3775ZM35.075 9.775C35.1925 9.775 35.225 9.9275 35.1525 10.1125C35.0525 10.3625 35.105 10.4225 35.3625 10.3225C35.62 10.2225 35.7025 10.3 35.7025 10.5525C35.685 10.7277 35.619 10.8946 35.5119 11.0344C35.4049 11.1742 35.261 11.2814 35.0964 11.344C34.9318 11.4066 34.753 11.422 34.5801 11.3886C34.4072 11.3553 34.247 11.2744 34.1175 11.155C33.9712 10.9339 33.8895 10.6764 33.8815 10.4114C33.8736 10.1464 33.9397 9.88446 34.0725 9.655C34.335 9.38 35.14 9.3175 34.985 9.575C34.9225 9.68 34.96 9.76 35.075 9.76V9.775ZM1.575 16.025C1.7475 16.2 2.48 16.275 3.87 16.255L5.915 16.2275L4.5 16C3.87622 15.9123 3.26413 15.7555 2.675 15.5325C7.33295 15.1776 12.0079 15.1008 16.675 15.3025C24.595 15.3025 31.13 15.25 31.1925 15.1875C32.0801 15.0834 32.9744 15.0475 33.8675 15.08C36.3475 15.08 36.405 15.1 35.815 15.42C35.3562 15.6565 34.8798 15.8571 34.39 16.02C33.5825 16.27 33.585 16.27 35.0525 16.2375L36.5275 16.19V22.585C36.5275 27.6975 36.475 28.925 36.2775 28.7225C35.9349 26.7825 35.8299 24.8079 35.965 22.8425C35.9963 20.9056 35.9203 18.9685 35.7375 17.04C35.5175 16.8225 2.5825 16.82 2.375 17.04C2.19872 18.9288 2.12028 20.8255 2.14 22.7225C2.16185 24.6166 2.0901 26.5105 1.925 28.3975C1.88345 28.4358 1.82901 28.4571 1.7725 28.4571C1.71599 28.4571 1.66155 28.4358 1.62 28.3975C1.535 28.3125 1.4375 25.4375 1.405 22.01C1.3525 17.01 1.3925 15.8275 1.5975 16.0325L1.575 16.025ZM36.6325 46.1875C36.5 47.5875 36.4475 47.7325 36.095 47.64C35.88 47.5825 35.7025 47.4575 35.7025 47.36C35.7025 47.0725 2.2175 47.125 2.04 47.415C1.94 47.575 1.81 47.5325 1.6225 47.2725C1.23982 44.6238 1.14761 41.9412 1.3475 39.2725C1.3475 32.005 1.365 31.66 1.7025 32C2.04 32.34 2.0675 33.0425 2.16 39.2975L2.265 46.25L2.785 46.3925C3.475 46.585 35.365 46.605 35.6525 46.4175C35.9855 44.0262 36.0868 41.6083 35.955 39.1975C36.0125 32.9825 35.9825 32.16 35.705 32.265C24.7603 33.0634 13.7729 33.086 2.825 32.3325C2.19 32.1075 1.995 31.8625 2.325 31.68C2.4075 31.6375 2.3675 31.62 2.2375 31.655C1.94 31.7225 1.7625 31.275 1.77 30.445V29.8025L2.2225 30.3625L2.6775 30.92L7.6575 31.15C12.53 31.3725 31.265 31.2625 34.3625 30.9925C35.71 30.875 35.765 30.8475 36.04 30.185C36.1246 29.9355 36.2524 29.7028 36.4175 29.4975C36.5025 30.4232 36.5301 31.3534 36.5 32.2825C36.5 33.8225 36.5675 37.235 36.6425 39.8425C36.7175 42.45 36.7 45.3425 36.6225 46.205L36.6325 46.1875ZM6.8775 12.16C8.1525 12.3025 8.6625 11.8 8.6625 10.41C8.6625 9.57 8.5775 9.34 8.1425 8.99C7.93698 8.78084 7.66894 8.64428 7.37891 8.60098C7.08889 8.55768 6.79265 8.60999 6.535 8.75C5.9 9 5.64 9.4275 5.51 10.4075C5.34 11.595 5.675 12.0325 6.8725 12.1575L6.8775 12.16ZM7.7 9.725C7.80802 9.84541 7.88522 9.99023 7.92497 10.147C7.96472 10.3038 7.96584 10.4679 7.92823 10.6253C7.89061 10.7826 7.8154 10.9285 7.70902 11.0503C7.60265 11.1722 7.4683 11.2665 7.3175 11.325C6.535 11.52 6.2225 11.285 6.2225 10.505C6.2225 9.4775 7.0725 9.0325 7.7 9.725ZM32.2175 11.8875C32.635 11.595 32.6775 11.42 32.625 10.325C32.5699 9.82363 32.5995 9.31656 32.7125 8.825C32.8125 8.6675 32.7125 8.595 32.4625 8.615C32.2125 8.635 32.1175 8.74 32.18 8.865C32.2425 8.99 32.18 8.96 32.025 8.82C31.7283 8.66777 31.3997 8.58837 31.0662 8.58837C30.7328 8.58837 30.4042 8.66777 30.1075 8.82C29.5025 9.16 29.4025 9.395 29.3975 10.4575C29.3645 10.7019 29.3835 10.9505 29.4533 11.187C29.5231 11.4236 29.6421 11.6427 29.8025 11.83C30.1543 12.0754 30.5707 12.2113 30.9996 12.2207C31.4284 12.23 31.8504 12.1124 32.2125 11.8825L32.2175 11.8875ZM31.635 9.7775C32.33 10.4725 32.0425 11.405 31.135 11.4C30.8947 11.4305 30.6521 11.3644 30.4605 11.2163C30.2688 11.0682 30.1437 10.8502 30.1125 10.61C29.9025 9.5125 30.85 9 31.635 9.7875M3.425 12.2175C4.4925 12.2175 5.0025 11.6625 5.0025 10.51C5.0025 8.9875 3.9875 8.295 2.605 8.8725C2.22445 9.0451 1.91822 9.34818 1.74169 9.72692C1.56515 10.1057 1.52997 10.5351 1.6425 10.9375C1.72104 11.3374 1.94921 11.6923 2.28046 11.9297C2.61171 12.1671 3.02107 12.2716 3.425 12.2175ZM2.7725 10.485C2.9975 10.415 3.1275 10.2675 3.06 10.16C2.9025 9.91 3.3725 9.3325 3.6625 9.43C3.8668 9.58765 4.01351 9.80816 4.08 10.0575C4.19166 10.2654 4.21621 10.5091 4.14823 10.7351C4.08025 10.961 3.92532 11.1507 3.7175 11.2625C3.61722 11.3136 3.50903 11.3474 3.3975 11.3625C2.955 11.43 2.355 11.1125 2.355 10.775C2.355 10.685 2.545 10.55 2.7725 10.48V10.485ZM24.2725 16.0275C27.0225 15.995 24.7175 15.97 19.125 15.97C13.5325 15.97 11.28 15.995 14.1075 16.0275C16.935 16.06 21.5125 16.0575 24.2725 16.0275ZM14.3275 32.0975C17.045 32.13 21.4375 32.13 24.0775 32.0975C26.7175 32.065 24.5 32.0375 19.125 32.0375C13.75 32.0375 11.59 32.0525 14.32 32.0975" fill="url(#paint0_linear_214_460)"/>
<defs>
<linearGradient id="paint0_linear_214_460" x1="18.9975" y1="0" x2="18.9975" y2="50.0002" gradientUnits="userSpaceOnUse">
<stop stop-color="#C69C72"/>
<stop offset="0.745" stop-color="#604C37"/>
</linearGradient>
</defs>
</svg>
