<svg width="51" height="52" viewBox="0 0 51 52" fill="none" xmlns="http://www.w3.org/2000/svg">
<path d="M26.5399 6.63208C15.7303 6.63208 6.97266 9.50481 6.97266 13.0469L10.2199 41.9097C10.5387 45.412 16.9416 49.9064 26.5439 49.9064C36.1463 49.9064 42.4695 45.6949 42.8679 41.9097L46.1152 13.0469C46.1072 9.50481 37.3455 6.63208 26.5399 6.63208Z" fill="#03A9F4"/>
<path d="M46.0073 10.7798C46.0073 7.23772 37.4767 4.66382 26.3523 4.66382C16.8058 4.66382 8.66969 6.67194 6.58984 9.5128L7.17555 14.8877C7.17555 14.8877 11.5424 18.2983 26.5356 18.2983C27.0735 18.2983 27.5955 18.2904 28.1055 18.2824L28.6115 23.7569H29.492L30.5877 18.1987C42.3416 17.6011 45.9395 14.5172 45.9395 14.5172L46.0073 10.7798Z" fill="#224D7E"/>
<path d="M48.8447 7.70391C48.8447 7.70391 39.9038 5.67188 26.2573 5.67188C12.6108 5.67188 3.99658 7.45687 3.99658 7.45687C4.2476 10.3854 5.37916 12.9832 5.37916 12.9832C5.37916 12.9832 9.10854 16.9516 26.4446 16.9516C43.7806 16.9516 47.4302 13.3737 47.9642 12.776C48.4981 12.1704 48.8447 7.70391 48.8447 7.70391Z" fill="#03A9F4"/>
<path d="M48.8125 6.85508C48.0076 3.96242 40.0708 2.09375 26.4203 2.09375C12.7698 2.09375 4.83295 3.96242 4.0281 6.85508C3.29896 9.48477 10.2836 12.3296 26.4203 12.3296C42.557 12.3296 49.5416 9.48477 48.8125 6.85508Z" fill="#81D4FA"/>
<path d="M26.4205 9.76353C36.9038 9.76353 45.4021 8.36319 45.4021 6.63579C45.4021 4.90839 36.9038 3.50806 26.4205 3.50806C15.9373 3.50806 7.43896 4.90839 7.43896 6.63579C7.43896 8.36319 15.9373 9.76353 26.4205 9.76353Z" fill="#224D7E"/>
<path d="M24.2012 3.50806C12.7581 3.89454 7.43896 5.38868 7.43896 6.63579C7.43896 8.36103 15.6229 9.56032 24.2012 9.76353V3.50806Z" fill="url(#paint0_linear_213_272)"/>
<path d="M33.0585 21.916C28.1697 24.6772 15.6468 31.2036 8.95703 30.6777L9.5507 36.1044C10.1245 36.192 23.3765 36.4948 34.8594 23.0954L33.0585 21.916Z" fill="#224D7E"/>
<path d="M7.13186 14.4214C4.25912 17.2662 1.05569 20.8163 2.6335 24.6493C3.20326 26.0319 4.39459 26.7729 5.11178 27.0917C5.11178 27.0917 5.13569 26.8208 5.19944 26.3626C5.4385 24.6015 6.33498 22.673 7.82115 20.5494L7.13186 14.4214Z" fill="#757575"/>
<path d="M35.118 21.418C34.5442 19.8402 32.7592 20.7008 32.7592 20.7008C27.3405 23.7608 12.8374 30.8211 5.74518 27.9843C3.89643 27.2472 2.36244 26.3268 1.41018 23.8365C1.40221 25.6295 3.64143 30.7056 5.47822 31.6379C6.96838 32.391 8.68565 32.893 10.7535 32.893C14.2478 32.893 18.6107 31.7017 23.8063 29.323C29.7271 26.6136 34.2016 23.5815 34.4048 23.4461C34.4088 23.4421 35.6399 22.8564 35.118 21.418Z" fill="#9E9E9E"/>
<path d="M34.4054 19.7883C33.5926 19.1708 32.214 19.4576 31.0705 20.0473C30.6123 20.2147 26.9985 22.6093 21.1056 24.9123C13.4556 27.9005 7.78183 28.4105 4.70191 26.3905C3.02847 25.2908 2.39097 23.8405 2.75753 21.9439C3.19183 19.6927 4.82941 17.2981 7.18019 14.8716L7.08855 14.0668L6.47097 13.7361C3.85722 16.3498 1.96862 19.0632 1.46261 21.6969C0.996437 24.1074 1.86901 26.1155 3.98073 27.4981C5.52667 28.5101 7.47105 28.9245 9.62261 28.9245C18.9381 28.9245 31.5526 21.4299 32.226 21.0235C32.226 21.0235 34.0269 19.9437 34.9473 21.2944C35.0868 21.4976 35.282 21.8881 35.2142 22.418C35.2142 22.418 35.6804 20.7605 34.4054 19.7883Z" fill="#E0E0E0"/>
<defs>
<linearGradient id="paint0_linear_213_272" x1="7.43777" y1="6.63539" x2="24.202" y2="6.63539" gradientUnits="userSpaceOnUse">
<stop stop-color="#224D7E"/>
<stop offset="1" stop-color="#0A488F" stop-opacity="0"/>
</linearGradient>
</defs>
</svg>
