<svg width="20" height="21" viewBox="0 0 20 21" fill="none" xmlns="http://www.w3.org/2000/svg">
<path d="M5.25 12.0305C5.25 11.6163 5.58579 11.2805 6 11.2805H6.01C6.42421 11.2805 6.76 11.6163 6.76 12.0305V12.0405C6.76 12.4547 6.42421 12.7905 6.01 12.7905H6C5.58579 12.7905 5.25 12.4547 5.25 12.0405V12.0305Z" fill="#667085"/>
<path d="M6 13.2805C5.58579 13.2805 5.25 13.6163 5.25 14.0305V14.0405C5.25 14.4547 5.58579 14.7905 6 14.7905H6.01C6.42421 14.7905 6.76 14.4547 6.76 14.0405V14.0305C6.76 13.6163 6.42421 13.2805 6.01 13.2805H6Z" fill="#667085"/>
<path d="M7.25 12.0305C7.25 11.6163 7.58579 11.2805 8 11.2805H8.01C8.42421 11.2805 8.76 11.6163 8.76 12.0305V12.0405C8.76 12.4547 8.42421 12.7905 8.01 12.7905H8C7.58579 12.7905 7.25 12.4547 7.25 12.0405V12.0305Z" fill="#667085"/>
<path d="M8 13.2805C7.58579 13.2805 7.25 13.6163 7.25 14.0305V14.0405C7.25 14.4547 7.58579 14.7905 8 14.7905H8.01C8.42421 14.7905 8.76 14.4547 8.76 14.0405V14.0305C8.76 13.6163 8.42421 13.2805 8.01 13.2805H8Z" fill="#667085"/>
<path d="M9.25 10.0305C9.25 9.6163 9.58579 9.28052 10 9.28052H10.01C10.4242 9.28052 10.76 9.6163 10.76 10.0305V10.0405C10.76 10.4547 10.4242 10.7905 10.01 10.7905H10C9.58579 10.7905 9.25 10.4547 9.25 10.0405V10.0305Z" fill="#667085"/>
<path d="M10 11.2805C9.58579 11.2805 9.25 11.6163 9.25 12.0305V12.0405C9.25 12.4547 9.58579 12.7905 10 12.7905H10.01C10.4242 12.7905 10.76 12.4547 10.76 12.0405V12.0305C10.76 11.6163 10.4242 11.2805 10.01 11.2805H10Z" fill="#667085"/>
<path d="M9.25 14.0305C9.25 13.6163 9.58579 13.2805 10 13.2805H10.01C10.4242 13.2805 10.76 13.6163 10.76 14.0305V14.0405C10.76 14.4547 10.4242 14.7905 10.01 14.7905H10C9.58579 14.7905 9.25 14.4547 9.25 14.0405V14.0305Z" fill="#667085"/>
<path d="M12 9.28052C11.5858 9.28052 11.25 9.6163 11.25 10.0305V10.0405C11.25 10.4547 11.5858 10.7905 12 10.7905H12.01C12.4242 10.7905 12.76 10.4547 12.76 10.0405V10.0305C12.76 9.6163 12.4242 9.28052 12.01 9.28052H12Z" fill="#667085"/>
<path d="M11.25 12.0305C11.25 11.6163 11.5858 11.2805 12 11.2805H12.01C12.4242 11.2805 12.76 11.6163 12.76 12.0305V12.0405C12.76 12.4547 12.4242 12.7905 12.01 12.7905H12C11.5858 12.7905 11.25 12.4547 11.25 12.0405V12.0305Z" fill="#667085"/>
<path d="M12 13.2805C11.5858 13.2805 11.25 13.6163 11.25 14.0305V14.0405C11.25 14.4547 11.5858 14.7905 12 14.7905H12.01C12.4242 14.7905 12.76 14.4547 12.76 14.0405V14.0305C12.76 13.6163 12.4242 13.2805 12.01 13.2805H12Z" fill="#667085"/>
<path d="M13.25 10.0305C13.25 9.6163 13.5858 9.28052 14 9.28052H14.01C14.4242 9.28052 14.76 9.6163 14.76 10.0305V10.0405C14.76 10.4547 14.4242 10.7905 14.01 10.7905H14C13.5858 10.7905 13.25 10.4547 13.25 10.0405V10.0305Z" fill="#667085"/>
<path d="M14 11.2805C13.5858 11.2805 13.25 11.6163 13.25 12.0305V12.0405C13.25 12.4547 13.5858 12.7905 14 12.7905H14.01C14.4242 12.7905 14.76 12.4547 14.76 12.0405V12.0305C14.76 11.6163 14.4242 11.2805 14.01 11.2805H14Z" fill="#667085"/>
<path fill-rule="evenodd" clip-rule="evenodd" d="M5.75 2.03052C6.16421 2.03052 6.5 2.3663 6.5 2.78052V4.03052H13.5V2.78052C13.5 2.3663 13.8358 2.03052 14.25 2.03052C14.6642 2.03052 15 2.3663 15 2.78052V4.03052H15.25C16.7688 4.03052 18 5.26173 18 6.78052V15.2805C18 16.7993 16.7688 18.0305 15.25 18.0305H4.75C3.23122 18.0305 2 16.7993 2 15.2805V6.78052C2 5.26173 3.23122 4.03052 4.75 4.03052H5V2.78052C5 2.3663 5.33579 2.03052 5.75 2.03052ZM4.75 7.53052C4.05964 7.53052 3.5 8.09016 3.5 8.78052V15.2805C3.5 15.9709 4.05964 16.5305 4.75 16.5305H15.25C15.9404 16.5305 16.5 15.9709 16.5 15.2805V8.78052C16.5 8.09016 15.9404 7.53052 15.25 7.53052H4.75Z" fill="#667085"/>
</svg>
