<svg width="14" height="15" viewBox="0 0 14 15" fill="none" xmlns="http://www.w3.org/2000/svg">
<path d="M13.0117 10.0312C13.2227 10.0312 13.3984 10.1016 13.5391 10.2422C13.6797 10.3828 13.75 10.5586 13.75 10.7695V13.3711C13.75 13.957 13.5039 14.25 13.0117 14.25C9.51953 14.25 6.51953 12.9961 4.01172 10.4883C1.50391 7.98047 0.25 4.98047 0.25 1.48828C0.25 0.996094 0.542969 0.75 1.12891 0.75H3.73047C3.94141 0.75 4.11719 0.820312 4.25781 0.960938C4.39844 1.10156 4.46875 1.27734 4.46875 1.48828C4.46875 2.40234 4.60938 3.28125 4.89062 4.125C4.98438 4.42969 4.92578 4.6875 4.71484 4.89844L3.27344 6.16406C4.35156 8.41406 6.07422 10.1133 8.44141 11.2617L9.60156 9.78516C9.74219 9.64453 9.91797 9.57422 10.1289 9.57422C10.2461 9.57422 10.3281 9.58594 10.375 9.60938C11.2188 9.89062 12.0977 10.0312 13.0117 10.0312Z" fill="#F9DABB"/>
</svg>
