<svg width="60" height="60" viewBox="0 0 60 60" fill="none" xmlns="http://www.w3.org/2000/svg">
<g clip-path="url(#clip0_213_290)">
<path d="M58.9332 40.8507L52.9088 38.8023L42.5307 35.267C41.4573 34.9032 40.3848 34.5357 39.3113 34.172L38.8266 34.0079C38.6157 33.9357 38.3616 34.0117 38.146 34.0632L32.6419 35.2782C29.2848 36.0273 25.9229 36.7698 22.5657 37.5151C18.8766 38.3345 15.1951 39.1492 11.507 39.9676L3.06945 41.8407C2.28382 42.016 1.4982 42.1857 0.716325 42.361C0.694762 42.3648 0.672262 42.3723 0.65445 42.376C0.636637 42.3798 0.625387 42.3835 0.610387 42.3835C0.419091 42.4317 0.253617 42.5515 0.1482 42.7182C0.1382 42.7314 0.128512 42.747 0.119137 42.7651C0.0626045 42.8594 0.0259565 42.9643 0.0114464 43.0733C-0.00306359 43.1822 0.004871 43.293 0.0347624 43.3989C0.0891374 43.6023 0.212887 43.7626 0.3732 43.8601C0.385075 43.8714 0.3982 43.8823 0.412575 43.8929C1.89382 44.9289 3.37414 45.9742 4.8582 47.0101C7.87414 49.1317 10.8901 51.2485 13.9051 53.3692C16.578 55.2401 19.2483 57.1148 21.916 58.9932C22.2329 59.2145 22.5273 59.3064 22.9379 59.117C23.3091 58.9417 23.6804 58.771 24.0545 58.5967L30.6976 55.5226L40.6135 50.9326C43.9566 49.3864 47.3035 47.8367 50.6541 46.2835C52.9923 45.2023 55.3326 44.1192 57.6751 43.0342C58.1595 42.8092 58.6457 42.5848 59.1338 42.361C59.3916 42.241 59.5416 41.9129 59.5416 41.6438C59.5435 41.2623 59.2885 40.9707 58.9388 40.8507" fill="#D1D1D3"/>
<path d="M53.8592 41.5782L48.8867 39.8794C46.0273 38.9044 43.1679 37.9369 40.3086 36.9629C39.4254 36.661 38.5367 36.3619 37.6536 36.0601C37.5186 36.0122 37.3845 35.9691 37.2533 35.9223C37.0751 35.8641 36.8708 35.9297 36.6889 35.9663C35.1758 36.3001 33.6589 36.6394 32.1448 36.9732C29.3686 37.5888 26.5942 38.2051 23.8217 38.8219L14.6867 40.8441C12.3626 41.3607 10.0414 41.8782 7.71357 42.3901C7.0695 42.5354 6.41888 42.6779 5.77107 42.8232L5.72044 42.8344L5.68388 42.8419C5.5272 42.8802 5.39164 42.978 5.30607 43.1147C5.29857 43.1297 5.28732 43.1391 5.28075 43.1541C5.21012 43.2699 5.17827 43.4052 5.18982 43.5404C5.19357 43.5872 5.19732 43.6351 5.21138 43.6782C5.25825 43.8488 5.36044 43.9754 5.49169 44.0598C5.50294 44.0673 5.51325 44.0785 5.5245 44.0851C6.747 44.9429 7.97325 45.8016 9.19575 46.6641C11.6876 48.4135 14.1758 50.1601 16.6714 51.9094C18.662 53.3107 20.6542 54.7104 22.6479 56.1085C22.8604 56.2572 23.0726 56.4066 23.2845 56.5566C23.547 56.7413 23.787 56.8182 24.132 56.6579C24.4376 56.5191 24.7433 56.3785 25.0489 56.236C26.8789 55.3847 28.7079 54.5401 30.5379 53.6926C33.2661 52.4307 35.9979 51.1651 38.7261 49.9051C41.4904 48.6238 44.2551 47.3444 47.0201 46.0669C48.9486 45.1726 50.8836 44.2735 52.8195 43.3829C53.2195 43.1941 53.6208 43.0072 54.0233 42.8222C54.2351 42.7238 54.3617 42.4576 54.3617 42.2363C54.3617 41.9194 54.1508 41.6757 53.8592 41.581" fill="#BCBCBC"/>
<path d="M21.4753 48.7688L51.5503 38.7563L50.4056 35.6626L34.275 37.6595L20.0625 42.2157L21.4753 48.7688Z" fill="#929296"/>
<path d="M46.9875 34.5852C51.0253 34.5852 54.299 35.1515 54.299 35.8536C54.299 36.5521 51.0253 37.1193 46.9875 37.1193C42.9422 37.1193 39.6675 36.553 39.6675 35.8536C39.6675 35.1505 42.9422 34.5852 46.9875 34.5852Z" fill="#E85646"/>
<path d="M48.6065 36.5474C44.564 36.5474 41.294 35.9803 41.294 35.279C41.2953 35.1903 41.3412 35.1059 41.4319 35.0259C40.3369 35.2453 39.6675 35.5331 39.6675 35.8518C39.6675 36.5503 42.9412 37.1174 46.9875 37.1174C50.5228 37.1174 53.4769 36.6815 54.1537 36.1049C52.8075 36.3731 50.8294 36.5474 48.6065 36.5474Z" fill="#C63D22"/>
<path d="M53.5126 40.0876L42.8579 37.8864C42.8579 37.8864 48.6667 34.8854 49.1729 34.8207C49.6782 34.7617 54.1135 34.157 54.1135 34.157L53.5126 40.0876Z" fill="#930776"/>
<path d="M19.5077 33.301C19.5077 33.301 28.4317 30.2053 43.9389 30.346C43.9389 30.346 52.3858 30.9066 53.342 31.8225V32.9794L20.7039 40.9388L19.5039 33.301" fill="#D118AA"/>
<path d="M43.9425 30.3487C28.4306 30.2071 19.5112 33.3056 19.5112 33.3056L19.7147 34.6153C22.949 33.749 30.8756 32.0324 42.5306 32.1356C42.5306 32.1356 49.7447 32.6174 51.5925 33.4115L53.3494 32.9849V31.8243C52.3894 30.9112 43.9462 30.3487 43.9462 30.3487" fill="#D10994"/>
<path d="M23.0906 21.989C23.0906 21.989 26.6485 21.374 27.6853 24.0262C27.6853 24.0262 23.9569 28.8646 23.7675 28.9696C23.5856 29.0821 19.726 34.5946 19.726 34.5946C19.726 34.5946 16.1325 35.3155 15.27 32.4234L16.1578 28.4418L22.0697 23.039L23.0906 21.989Z" fill="#DD76BE"/>
<path d="M26.3905 29.7515C26.4623 30.0207 26.4801 30.3015 26.4428 30.5776C26.4054 30.8537 26.3138 31.1197 26.1731 31.3602C26.0324 31.6007 25.8455 31.8109 25.6231 31.9788C25.4007 32.1466 25.1473 32.2687 24.8774 32.3381L17.8349 33.7959C17.2901 33.9414 16.7099 33.8648 16.2216 33.5828C15.7333 33.3009 15.3769 32.8367 15.2305 32.2921L14.1027 25.7746C14.0306 25.5056 14.0124 25.2248 14.0494 24.9487C14.0863 24.6726 14.1776 24.4065 14.3179 24.1659C14.4583 23.9252 14.6449 23.7147 14.867 23.5466C15.0891 23.3784 15.3424 23.2559 15.6121 23.1862L22.8768 22.0331C23.4214 21.8875 24.0015 21.9641 24.4898 22.2458C24.9781 22.5276 25.3346 22.9915 25.4811 23.5359L26.3905 29.7515Z" fill="#DD76BE"/>
<path d="M28.6779 30.4724C28.7489 30.7421 28.766 31.0232 28.7281 31.2995C28.6903 31.5758 28.5983 31.8419 28.4573 32.0826C28.3164 32.3232 28.1294 32.5337 27.9069 32.7019C27.6845 32.8701 27.431 32.9927 27.1611 33.0628L20.1148 34.5178C19.5702 34.6625 18.9904 34.5857 18.5024 34.304C18.0143 34.0224 17.6576 33.5589 17.5104 33.0149L16.3826 26.4965C16.3121 26.2273 16.2953 25.9469 16.3332 25.6712C16.3711 25.3955 16.4629 25.13 16.6034 24.8898C16.7439 24.6496 16.9304 24.4395 17.1521 24.2713C17.3739 24.1032 17.6265 23.9804 17.8957 23.9099L25.1604 22.7568C26.2948 22.4568 27.4592 23.1318 27.7611 24.2578L28.6779 30.4724Z" fill="#F484CC"/>
<path d="M19.9876 51.4969C19.9876 51.4969 19.0304 51.9 18.3835 49.7269C18.3635 49.6581 18.3442 49.5865 18.3254 49.5122C17.6851 47.1009 15.5382 33.0075 15.5382 33.0075C15.5382 33.0075 15.3235 30.2756 18.4848 30.3815C18.4848 30.3815 21.8682 29.7928 21.5954 33.4369L22.4026 49.4025V49.6172C22.4026 49.6172 22.8798 51.3309 19.9876 51.4922" fill="#D10994"/>
<path d="M46.9875 34.6106C51.0253 34.6106 54.299 35.1797 54.299 35.8781C54.299 36.5765 51.0253 37.1447 46.9875 37.1447C42.9422 37.1447 39.6675 36.5775 39.6675 35.8781C39.6675 35.1797 42.9422 34.6106 46.9875 34.6106Z" fill="#E85646"/>
<path d="M48.6065 36.5719C44.564 36.5719 41.294 36.0056 41.294 35.3044C41.2953 35.215 41.3412 35.1303 41.4319 35.0503C40.3369 35.2725 39.6675 35.5603 39.6675 35.8762C39.6675 36.5747 42.9412 37.1428 46.9875 37.1428C50.5228 37.1428 53.4769 36.7059 54.1537 36.1284C52.8075 36.4012 50.8294 36.5719 48.6065 36.5719Z" fill="#C63D22"/>
<path d="M47.8124 34.441C47.7064 35.101 47.5902 35.6289 47.4702 36.0039C47.5902 35.6289 47.7027 35.1048 47.8124 34.441ZM47.2405 36.5204C47.1749 36.6057 47.1092 36.662 47.0474 36.662C47.113 36.662 47.1739 36.6039 47.2405 36.5204ZM47.8311 34.3529C48.2971 31.3857 48.6102 25.8592 48.6102 19.5198C48.6102 17.1264 48.5624 14.851 48.4827 12.782C48.4639 12.782 48.4455 12.7826 48.4274 12.7839C48.0199 12.807 47.6014 12.8204 47.1721 12.8242C47.0879 15.055 47.0467 17.2873 47.0483 19.5198C47.0492 25.8564 47.3661 31.3867 47.8311 34.3529Z" fill="#526D77"/>
<path d="M47.4714 19.573C47.4714 17.1955 47.4714 14.8668 47.1696 12.823L47.0383 12.8258L46.9952 12.8277H46.9877C46.5139 12.8277 46.0555 12.8146 45.6124 12.7883C45.528 14.8546 45.4849 17.128 45.4849 19.5186C45.4849 28.9874 46.1824 36.6618 47.0449 36.6618C47.1067 36.6618 47.1724 36.6046 47.238 36.5202C47.253 36.5005 47.2671 36.4705 47.2811 36.4452C47.333 36.3602 47.3827 36.2483 47.4302 36.1096C47.4452 36.0749 47.4555 36.0421 47.4705 36.0046C47.5905 35.6296 47.7067 35.1018 47.8127 34.4418C47.8164 34.4127 47.8239 34.3902 47.8267 34.3621V34.3527C47.3627 31.3865 47.4714 25.9152 47.4714 19.573Z" fill="#5F7B89"/>
<path d="M43.2376 0.882207C43.3726 0.59252 43.7035 0.387207 44.0963 0.387207H44.0851C43.5685 0.387207 43.1541 0.739707 43.1541 1.17658L40.4429 10.935L40.4466 10.9547L43.1541 1.20283C43.1541 1.08846 43.186 0.980645 43.2376 0.882207Z" fill="#8D73F9"/>
<path d="M48.4239 12.7836C47.9758 12.8089 47.5146 12.8268 47.0374 12.8268L47.1686 12.8239C47.598 12.8202 48.0164 12.8068 48.4239 12.7836ZM46.9877 12.8286C43.3821 12.8286 40.4571 12.0393 40.4571 11.0661V11.0643C40.4571 11.0296 40.4533 10.9949 40.4533 10.9611L43.1636 1.2027C43.1636 0.766758 43.5752 0.418945 44.0917 0.418945H44.0805C43.6989 0.418945 43.3783 0.610195 43.233 0.883008C43.1784 0.980711 43.1496 1.09076 43.1496 1.2027L40.4421 10.9555L40.4383 10.9611C40.4371 10.9961 40.4396 11.0305 40.4458 11.0643V11.0661C40.4458 11.9118 42.6574 12.6177 45.6086 12.7883C46.0678 12.8148 46.5277 12.8282 46.9877 12.8286ZM50.8877 1.2027C50.8877 0.766758 50.4733 0.418945 49.9642 0.418945H48.8842C48.7155 0.647695 48.5564 0.883633 48.4071 1.12676C47.5521 2.5602 47.2071 4.19707 47.1846 5.82363C47.1517 7.67332 47.5455 9.56707 48.0724 11.3418C48.2252 11.8293 48.3883 12.3036 48.5664 12.7752C51.3977 12.5821 53.5136 11.8949 53.5136 11.0708V11.0689C53.5136 11.0343 53.5249 10.9996 53.5249 10.9658L53.5211 10.9602L50.8877 1.20645" fill="#F9ED32"/>
<path d="M48.0752 11.3344C47.5483 9.55881 47.1546 7.666 47.1874 5.81631C47.2089 4.1935 47.5549 2.55662 48.4099 1.11943C48.5599 0.876309 48.7189 0.640371 48.8871 0.411621H44.0964C43.5799 0.411621 43.1683 0.759434 43.1683 1.19537L40.458 10.9538C40.458 10.9885 40.4618 11.0232 40.4618 11.0569V11.0588C40.4618 12.0319 43.3868 12.8213 46.9924 12.8213H46.9961L47.0393 12.8194C47.5164 12.8194 47.9768 12.8016 48.4258 12.7763C48.4446 12.7744 48.463 12.7738 48.4811 12.7744L48.5758 12.7707C48.394 12.296 48.227 11.8158 48.0752 11.3307" fill="#EDDA2E"/>
<path d="M53.5121 40.109L42.8574 37.9134C42.8574 37.9134 48.6661 34.9087 49.1724 34.8477C49.6777 34.7859 54.113 34.1784 54.113 34.1784L53.5121 40.109ZM55.2549 26.0737C55.2549 26.0737 43.8361 25.3171 41.0986 25.5862L41.9021 31.2674L48.6568 32.0212L54.4486 32.3924L55.253 26.0765" fill="#755B45"/>
<path d="M42.2623 31.1531C42.2623 31.1531 43.5213 19.5778 40.2654 19.8468C40.2654 19.8468 21.5595 18.6684 8.40916 21.1856C8.40916 21.1856 6.63728 21.9918 6.69166 23.3306L8.69603 31.4747L10.9807 35.6615L32.3707 34.2121L42.2623 31.1531Z" fill="#755B45"/>
<path d="M14.8332 29.4169C14.7751 28.0782 16.5432 27.2738 16.5432 27.2738C25.0651 25.6444 35.9138 25.5647 42.5017 25.711C42.4295 22.7485 41.9598 19.711 40.2723 19.8488C40.2723 19.8488 21.5701 18.6704 8.41884 21.1875C8.41884 21.1875 6.64322 21.9938 6.69853 23.3325L8.70291 31.4766L10.9876 35.6635L16.277 35.3072L14.8332 29.4169Z" fill="#82664D"/>
<path d="M43.9425 30.3721C28.4306 30.2306 19.5112 33.3262 19.5112 33.3262V33.3318L19.7147 34.6415C19.7147 34.6415 19.7184 34.6415 19.7184 34.6396L20.7122 40.9631L51.5859 33.435L51.5934 33.4387L53.3503 33.0112V31.8478C52.3894 30.9271 43.9472 30.3703 43.9472 30.3703" fill="#82664D"/>
<path d="M20.6999 48.0844L53.3418 38.0541V32.3916C53.3418 32.3916 29.4712 36.1416 20.2012 39.36L20.7037 48.0882" fill="#4C3729"/>
<path d="M54.3103 39.9899C54.3103 39.9899 54.66 40.0903 55.005 38.6737C55.0163 38.6299 55.0272 38.5834 55.0378 38.534C55.3903 36.9628 56.5435 27.7771 56.5435 27.7771C56.5435 27.7771 56.6597 25.9987 54.9535 26.0671C54.9535 26.0671 53.1281 25.6799 53.2735 28.0537L52.8403 38.4693V39.2549C52.8403 39.2549 52.9866 40.5637 54.3103 39.9937" fill="#4C3729"/>
<path d="M18.2885 25.0266C16.6479 25.2104 17.5723 26.986 17.787 28.8994L17.936 30.2823C18.1507 32.1957 17.5648 33.5269 19.2026 33.3413L28.6151 32.8923C30.2557 32.7094 29.3248 30.9338 29.1176 29.0204L28.9648 27.6338C28.7538 25.7166 29.3398 24.3891 27.7029 24.5785L18.2904 25.0266" fill="#E6E7E8"/>
<path d="M23.7777 28.6716C23.9155 28.2516 21.4199 26.567 20.6089 26.402C20.023 26.2838 19.9583 26.7713 20.2996 27.0113C20.9802 27.4876 21.9655 28.7654 22.2674 29.0401C22.228 29.0616 21.3139 29.7001 21.0271 30.0498C20.8527 30.257 20.3211 30.8532 20.503 31.112C20.6849 31.3698 21.9252 30.6676 22.0564 30.5832C23.7674 29.4882 23.3633 29.9429 23.7777 28.6716Z" fill="#D1D3D4"/>
<path d="M23.4653 28.9575C23.4475 28.5628 26.2966 26.7207 27.1909 26.4797C27.8313 26.3091 27.8313 26.7638 27.4309 27.0253C26.6341 27.5494 25.3938 28.8591 25.03 29.1535C25.0694 29.1703 25.9534 29.6803 26.2122 29.9813C26.365 30.1575 26.8488 30.6741 26.62 30.9366C26.3838 31.2019 24.5069 30.2916 24.3935 30.2128C23.1344 29.3466 23.5131 29.8688 23.4653 28.9575Z" fill="#D1D3D4"/>
<path d="M34.2837 25.1137C32.8765 25.2572 33.6696 26.6512 33.8505 28.155L33.9827 29.2387C34.1674 30.7415 33.6621 31.7868 35.074 31.6397L43.1609 31.2872C44.5718 31.1437 43.7712 29.7497 43.593 28.2478L43.4618 27.1603C43.2809 25.6565 43.7862 24.6122 42.3743 24.7612L34.2837 25.1137Z" fill="#E6E7E8"/>
<path d="M39.003 27.9731C39.1192 27.6459 36.9808 26.3213 36.2824 26.1947C35.7761 26.1 35.718 26.4844 36.0171 26.6728C36.5983 27.0459 37.4458 28.0481 37.7046 28.2628C37.6727 28.2825 36.8861 28.7831 36.6386 29.0559C36.4896 29.22 36.0349 29.6869 36.1905 29.8913C36.3471 30.0928 37.413 29.5425 37.5264 29.475C38.9955 28.6153 38.6467 28.9753 39.003 27.9731Z" fill="#D1D3D4"/>
<path d="M38.7375 28.1999C38.7188 27.8905 41.1675 26.443 41.9354 26.2555C42.4847 26.1224 42.4847 26.4796 42.1425 26.6849C41.4591 27.0955 40.3932 28.1259 40.08 28.3546C40.1129 28.3696 40.8732 28.7671 41.0954 29.0034C41.2304 29.143 41.6447 29.5471 41.4441 29.7543C41.2444 29.9634 39.6282 29.249 39.5307 29.1834C38.4507 28.5055 38.7741 28.9143 38.7375 28.1999Z" fill="#D1D3D4"/>
<path d="M19.5617 30.4161L6.96449 28.7446C6.96449 28.7446 5.84043 28.5336 5.46168 29.2264C5.46168 29.2264 4.23168 29.9774 4.71262 31.7474L7.66293 44.6624L19.5626 51.5089L20.2029 45.4649L19.5617 30.418" fill="#755B45"/>
<path d="M5.62199 35.7469C6.09074 35.311 6.96449 35.4779 6.96449 35.4779L19.5626 37.1513L20.0023 47.3916L20.202 45.4613L19.5617 30.4144L6.96449 28.7429C6.96449 28.7429 5.84043 28.5319 5.46168 29.2247C5.46168 29.2247 4.23168 29.9757 4.71262 31.7457L5.62199 35.7488" fill="#876B54"/>
<path d="M19.9876 51.5223C19.9876 51.5223 19.0304 51.9282 18.3835 49.7561C18.3648 49.6876 18.3432 49.6126 18.3254 49.5386C17.6851 47.1301 15.5382 33.0339 15.5382 33.0339C15.5382 33.0339 15.3235 30.302 18.4848 30.4079C18.4848 30.4079 21.8682 29.8173 21.5954 33.4632L22.4026 49.4289V49.6417C22.4026 49.6417 22.8798 51.3592 19.9876 51.5167" fill="#563F2F"/>
</g>
<defs>
<clipPath id="clip0_213_290">
<rect width="60" height="60" fill="white"/>
</clipPath>
</defs>
</svg>
