<svg width="25" height="20" viewBox="0 0 25 20" fill="none" xmlns="http://www.w3.org/2000/svg">
<path d="M9.9502 0C9.35346 0 8.78116 0.237053 8.35921 0.65901C7.93725 1.08097 7.7002 1.65326 7.7002 2.25V3H2.4502C1.85346 3 1.28116 3.23705 0.859205 3.65901C0.437248 4.08097 0.200195 4.65326 0.200195 5.25L0.200195 17.25C0.200195 17.8467 0.437248 18.419 0.859205 18.841C1.28116 19.2629 1.85346 19.5 2.4502 19.5H21.9502C22.5469 19.5 23.1192 19.2629 23.5412 18.841C23.9631 18.419 24.2002 17.8467 24.2002 17.25V5.25C24.2002 4.65326 23.9631 4.08097 23.5412 3.65901C23.1192 3.23705 22.5469 3 21.9502 3H16.7002V2.25C16.7002 1.65326 16.4631 1.08097 16.0412 0.65901C15.6192 0.237053 15.0469 0 14.4502 0H9.9502ZM9.9502 1.5H14.4502C14.6491 1.5 14.8399 1.57902 14.9805 1.71967C15.1212 1.86032 15.2002 2.05109 15.2002 2.25V3H9.2002V2.25C9.2002 2.05109 9.27921 1.86032 9.41987 1.71967C9.56052 1.57902 9.75128 1.5 9.9502 1.5ZM12.7792 11.871L22.7002 9.2265V17.25C22.7002 17.4489 22.6212 17.6397 22.4805 17.7803C22.3399 17.921 22.1491 18 21.9502 18H2.4502C2.25128 18 2.06052 17.921 1.91987 17.7803C1.77921 17.6397 1.7002 17.4489 1.7002 17.25V9.225L11.6212 11.871C12.0006 11.972 12.3998 11.972 12.7792 11.871ZM2.4502 4.5H21.9502C22.1491 4.5 22.3399 4.57902 22.4805 4.71967C22.6212 4.86032 22.7002 5.05109 22.7002 5.25V7.674L12.3937 10.422C12.2669 10.4559 12.1335 10.4559 12.0067 10.422L1.7002 7.674V5.25C1.7002 5.05109 1.77921 4.86032 1.91987 4.71967C2.06052 4.57902 2.25128 4.5 2.4502 4.5Z" fill="white"/>
</svg>
