<svg width="21" height="19" viewBox="0 0 21 19" fill="none" xmlns="http://www.w3.org/2000/svg">
<path d="M11.5009 18.5H8.90088L9.11288 18.345C9.25421 18.2417 9.40821 18.1257 9.57488 17.997C9.74155 17.8683 9.89555 17.7523 10.0369 17.649L10.2489 17.494H11.6339C13.0739 17.4713 14.4062 17.0953 15.6309 16.366C16.8555 15.636 17.8205 14.639 18.5259 13.375C17.0925 13.241 15.7342 12.8763 14.4509 12.281C13.1675 11.6863 12.0175 10.878 11.0009 9.85599C9.99688 8.83932 9.19188 7.68932 8.58588 6.40599C7.97921 5.12199 7.61755 3.76999 7.50088 2.34999C6.21755 3.06666 5.21355 4.05432 4.48888 5.31299C3.76421 6.57166 3.40155 7.93399 3.40088 9.39999C3.40088 9.59999 3.41055 9.81332 3.42988 10.04C3.44921 10.2667 3.47788 10.474 3.51588 10.662L3.36988 10.712C3.27255 10.7467 3.16088 10.785 3.03488 10.827C2.90821 10.8697 2.79621 10.911 2.69888 10.951L2.55288 11.011C2.50621 10.751 2.46955 10.486 2.44288 10.216C2.41488 9.94532 2.40088 9.67332 2.40088 9.39999C2.40088 7.45332 2.96088 5.69832 4.08088 4.13499C5.20088 2.57166 6.67955 1.48166 8.51688 0.86499C8.44755 2.42499 8.68655 3.92532 9.23388 5.36599C9.78055 6.80666 10.6072 8.07999 11.7139 9.18599C12.8205 10.2927 14.0939 11.1197 15.5339 11.667C16.9739 12.2143 18.4745 12.4533 20.0359 12.384C19.4225 14.22 18.3332 15.6983 16.7679 16.819C15.2025 17.9397 13.4469 18.5 11.5009 18.5ZM4.40088 17.5H8.90088C9.31755 17.5 9.67188 17.3543 9.96388 17.063C10.2559 16.7717 10.4015 16.4173 10.4009 16C10.4002 15.5827 10.2585 15.2287 9.97588 14.938C9.69321 14.6473 9.35155 14.5013 8.95088 14.5H7.65088L7.15088 13.3C6.91755 12.75 6.55088 12.3127 6.05088 11.988C5.55088 11.6633 5.00088 11.5007 4.40088 11.5C3.56755 11.5 2.85921 11.7877 2.27588 12.363C1.69255 12.9383 1.40088 13.6507 1.40088 14.5C1.40088 15.3333 1.69255 16.0417 2.27588 16.625C2.85921 17.2083 3.56755 17.5 4.40088 17.5ZM4.40088 18.5C3.28688 18.474 2.34188 18.0763 1.56588 17.307C0.789212 16.537 0.400879 15.5993 0.400879 14.494C0.400879 13.3893 0.789212 12.4473 1.56588 11.668C2.34188 10.8893 3.28755 10.5 4.40288 10.5C5.20955 10.5 5.94288 10.7187 6.60288 11.156C7.26288 11.5933 7.75288 12.1823 8.07288 12.923L8.32288 13.5H8.93788C9.61788 13.508 10.1985 13.7553 10.6799 14.242C11.1605 14.7287 11.4009 15.3147 11.4009 16C11.4009 16.6973 11.1585 17.2883 10.6739 17.773C10.1892 18.2577 9.59821 18.5 8.90088 18.5H4.40088Z" fill="white"/>
</svg>
