<svg width="48" height="48" viewBox="0 0 48 48" fill="none" xmlns="http://www.w3.org/2000/svg">
<rect x="0.400879" width="47" height="48" rx="13" fill="#F15A2B"/>
<path d="M24.5009 33.5H21.9009L22.1129 33.345C22.2542 33.2417 22.4082 33.1257 22.5749 32.997C22.7415 32.8683 22.8955 32.7523 23.0369 32.649L23.2489 32.494H24.6339C26.0739 32.4713 27.4062 32.0953 28.6309 31.366C29.8555 30.636 30.8205 29.639 31.5259 28.375C30.0925 28.241 28.7342 27.8763 27.4509 27.281C26.1675 26.6863 25.0175 25.878 24.0009 24.856C22.9969 23.8393 22.1919 22.6893 21.5859 21.406C20.9792 20.122 20.6175 18.77 20.5009 17.35C19.2175 18.0667 18.2135 19.0543 17.4889 20.313C16.7642 21.5717 16.4015 22.934 16.4009 24.4C16.4009 24.6 16.4105 24.8133 16.4299 25.04C16.4492 25.2667 16.4779 25.474 16.5159 25.662L16.3699 25.712C16.2725 25.7467 16.1609 25.785 16.0349 25.827C15.9082 25.8697 15.7962 25.911 15.6989 25.951L15.5529 26.011C15.5062 25.751 15.4695 25.486 15.4429 25.216C15.4149 24.9453 15.4009 24.6733 15.4009 24.4C15.4009 22.4533 15.9609 20.6983 17.0809 19.135C18.2009 17.5717 19.6795 16.4817 21.5169 15.865C21.4475 17.425 21.6865 18.9253 22.2339 20.366C22.7805 21.8067 23.6072 23.08 24.7139 24.186C25.8205 25.2927 27.0939 26.1197 28.5339 26.667C29.9739 27.2143 31.4745 27.4533 33.0359 27.384C32.4225 29.22 31.3332 30.6983 29.7679 31.819C28.2025 32.9397 26.4469 33.5 24.5009 33.5ZM17.4009 32.5H21.9009C22.3175 32.5 22.6719 32.3543 22.9639 32.063C23.2559 31.7717 23.4015 31.4173 23.4009 31C23.4002 30.5827 23.2585 30.2287 22.9759 29.938C22.6932 29.6473 22.3515 29.5013 21.9509 29.5H20.6509L20.1509 28.3C19.9175 27.75 19.5509 27.3127 19.0509 26.988C18.5509 26.6633 18.0009 26.5007 17.4009 26.5C16.5675 26.5 15.8592 26.7877 15.2759 27.363C14.6925 27.9383 14.4009 28.6507 14.4009 29.5C14.4009 30.3333 14.6925 31.0417 15.2759 31.625C15.8592 32.2083 16.5675 32.5 17.4009 32.5ZM17.4009 33.5C16.2869 33.474 15.3419 33.0763 14.5659 32.307C13.7892 31.537 13.4009 30.5993 13.4009 29.494C13.4009 28.3893 13.7892 27.4473 14.5659 26.668C15.3419 25.8893 16.2875 25.5 17.4029 25.5C18.2095 25.5 18.9429 25.7187 19.6029 26.156C20.2629 26.5933 20.7529 27.1823 21.0729 27.923L21.3229 28.5H21.9379C22.6179 28.508 23.1985 28.7553 23.6799 29.242C24.1605 29.7287 24.4009 30.3147 24.4009 31C24.4009 31.6973 24.1585 32.2883 23.6739 32.773C23.1892 33.2577 22.5982 33.5 21.9009 33.5H17.4009Z" fill="white"/>
</svg>
