<svg width="48" height="48" viewBox="0 0 48 48" fill="none" xmlns="http://www.w3.org/2000/svg">
<rect x="0.200195" width="47" height="48" rx="13" fill="#F0BB1F"/>
<path d="M20.9502 13C20.3535 13 19.7812 13.2371 19.3592 13.659C18.9372 14.081 18.7002 14.6533 18.7002 15.25V16H13.4502C12.8535 16 12.2812 16.2371 11.8592 16.659C11.4372 17.081 11.2002 17.6533 11.2002 18.25V30.25C11.2002 30.8467 11.4372 31.419 11.8592 31.841C12.2812 32.2629 12.8535 32.5 13.4502 32.5H32.9502C33.5469 32.5 34.1192 32.2629 34.5412 31.841C34.9631 31.419 35.2002 30.8467 35.2002 30.25V18.25C35.2002 17.6533 34.9631 17.081 34.5412 16.659C34.1192 16.2371 33.5469 16 32.9502 16H27.7002V15.25C27.7002 14.6533 27.4631 14.081 27.0412 13.659C26.6192 13.2371 26.0469 13 25.4502 13H20.9502ZM20.9502 14.5H25.4502C25.6491 14.5 25.8399 14.579 25.9805 14.7197C26.1212 14.8603 26.2002 15.0511 26.2002 15.25V16H20.2002V15.25C20.2002 15.0511 20.2792 14.8603 20.4199 14.7197C20.5605 14.579 20.7513 14.5 20.9502 14.5ZM23.7792 24.871L33.7002 22.2265V30.25C33.7002 30.4489 33.6212 30.6397 33.4805 30.7803C33.3399 30.921 33.1491 31 32.9502 31H13.4502C13.2513 31 13.0605 30.921 12.9199 30.7803C12.7792 30.6397 12.7002 30.4489 12.7002 30.25V22.225L22.6212 24.871C23.0006 24.972 23.3998 24.972 23.7792 24.871ZM13.4502 17.5H32.9502C33.1491 17.5 33.3399 17.579 33.4805 17.7197C33.6212 17.8603 33.7002 18.0511 33.7002 18.25V20.674L23.3937 23.422C23.2669 23.4559 23.1335 23.4559 23.0067 23.422L12.7002 20.674V18.25C12.7002 18.0511 12.7792 17.8603 12.9199 17.7197C13.0605 17.579 13.2513 17.5 13.4502 17.5Z" fill="white"/>
</svg>
