<svg width="53" height="45" viewBox="0 0 53 45" fill="none" xmlns="http://www.w3.org/2000/svg">
<g opacity="0.2">
<path d="M38.0891 26.68C38.3755 26.9533 38.6049 27.2807 38.7642 27.6432C38.9235 28.0056 39.0095 28.396 39.0172 28.7919C39.0249 29.1877 38.9541 29.5812 38.809 29.9495C38.664 30.3179 38.4474 30.6539 38.1718 30.9382C37.8962 31.2225 37.5671 31.4494 37.2034 31.6059C36.8398 31.7624 36.4487 31.8453 36.0528 31.85C35.6569 31.8546 35.264 31.7808 34.8968 31.6329C34.5295 31.4849 34.1952 31.2657 33.9131 30.988C33.8142 30.8945 33.7121 30.8045 33.6071 30.718C33.0396 30.2788 32.4096 29.9269 31.7381 29.674C30.3791 29.134 28.7381 28.834 27.0011 28.834C24.2591 28.834 21.8021 29.587 20.3951 30.721C20.2831 30.809 20.1811 30.898 20.0891 30.988C19.8069 31.2657 19.4726 31.4849 19.1054 31.6329C18.7381 31.7808 18.3452 31.8546 17.9493 31.85C17.5534 31.8453 17.1624 31.7624 16.7987 31.6059C16.435 31.4494 16.1059 31.2225 15.8303 30.9382C15.5547 30.6539 15.3382 30.3179 15.1931 29.9495C15.048 29.5812 14.9772 29.1877 14.9849 28.7919C14.9926 28.396 15.0786 28.0056 15.2379 27.6432C15.3972 27.2807 15.6267 26.9533 15.9131 26.68C16.1411 26.46 16.3811 26.248 16.6331 26.044C19.1861 23.995 22.9691 22.834 27.0011 22.834C29.4821 22.834 31.8731 23.272 33.9491 24.094C35.2391 24.604 36.3941 25.261 37.3691 26.044C37.6211 26.248 37.8611 26.46 38.0891 26.68Z" fill="url(#paint0_linear_213_300)"/>
<path d="M45.6402 18.9009C45.9233 19.1803 46.1481 19.5132 46.3014 19.8803C46.4547 20.2474 46.5334 20.6413 46.5331 21.0391C46.5327 21.4369 46.4532 21.8306 46.2993 22.1974C46.1453 22.5642 45.92 22.8967 45.6363 23.1756C45.3526 23.4545 45.0163 23.6742 44.647 23.8219C44.2776 23.9696 43.8826 24.0424 43.4848 24.036C43.0871 24.0296 42.6946 23.9441 42.3302 23.7847C41.9658 23.6252 41.6367 23.3948 41.3622 23.1069C41.0654 22.8056 40.753 22.5202 40.4262 22.2519C39.7045 21.6671 38.9348 21.1442 38.1252 20.6889C37.2312 20.185 36.2958 19.7584 35.3292 19.4139C34.2972 19.0333 33.2369 18.7344 32.1582 18.5199C31.0336 18.2855 29.8937 18.1321 28.7472 18.0609C27.0056 17.9501 25.2574 18.0084 23.5272 18.2349C22.4105 18.384 21.3058 18.6116 20.2212 18.9159C19.1949 19.2033 18.192 19.5683 17.2212 20.0079C16.3296 20.4144 15.4728 20.893 14.6592 21.4389C14.2862 21.6925 13.9248 21.9628 13.5762 22.2489C13.2492 22.5182 12.9368 22.8046 12.6402 23.1069C12.3675 23.4019 12.0384 23.6391 11.6724 23.8045C11.3064 23.9699 10.9109 24.0602 10.5093 24.0698C10.1078 24.0795 9.70834 24.0085 9.33477 23.8609C8.96119 23.7133 8.62106 23.4922 8.33453 23.2107C8.04801 22.9292 7.82093 22.593 7.66677 22.2221C7.51261 21.8512 7.4345 21.4531 7.43707 21.0515C7.43965 20.6498 7.52286 20.2527 7.68177 19.8838C7.84067 19.5149 8.07204 19.1817 8.36216 18.9039C8.79816 18.4639 9.26015 18.0399 9.74815 17.6319C10.2342 17.2299 10.7462 16.8459 11.2842 16.4799C12.3753 15.737 13.5298 15.0915 14.7342 14.5509C15.9826 13.9847 17.2723 13.5143 18.5922 13.1439C19.9494 12.7631 21.3319 12.4784 22.7292 12.2919C24.145 12.0991 25.5723 12.0029 27.0012 12.0039C28.4298 12.0063 29.8568 12.1015 31.2732 12.2889C32.6715 12.4752 34.0549 12.7599 35.4132 13.1409C36.732 13.5114 38.0207 13.9818 39.2682 14.5479C40.4692 15.095 41.6232 15.7401 42.7182 16.4769C43.2582 16.8429 43.7702 17.2269 44.2542 17.6289C44.7422 18.0369 45.2042 18.4609 45.6402 18.9009Z" fill="url(#paint1_linear_213_300)"/>
<path d="M51.736 11.4999C52.2408 12.0963 52.493 12.8662 52.4389 13.6457C52.3848 14.4252 52.0287 15.1529 51.4464 15.6739C50.864 16.1949 50.1013 16.4681 49.3206 16.4354C48.5399 16.4027 47.8028 16.0667 47.266 15.4989C46.8351 15.0156 46.3784 14.556 45.898 14.1219C45.399 13.6671 44.8784 13.2366 44.338 12.8319C43.1887 11.9829 41.9693 11.2332 40.693 10.5909C39.335 9.91007 37.922 9.34506 36.469 8.90189C34.9571 8.43033 33.4103 8.07924 31.843 7.85189C30.2397 7.61717 28.6213 7.50086 27.001 7.50389C25.3805 7.50185 23.7622 7.61917 22.159 7.85489C20.5928 8.08812 19.0464 8.43911 17.533 8.90489C16.0836 9.35675 14.6722 9.92251 13.312 10.5969C12.6613 10.9209 12.0256 11.2742 11.407 11.6559C10.81 12.0233 10.2295 12.4167 9.66698 12.8349C9.12654 13.2396 8.60594 13.6701 8.10698 14.1249C7.62544 14.5598 7.16777 15.0205 6.73598 15.5049C6.20303 16.0892 5.46093 16.4394 4.67111 16.4793C3.88129 16.5193 3.10764 16.2458 2.51845 15.7183C1.92926 15.1908 1.57218 14.4519 1.5249 13.6625C1.47762 12.8731 1.74396 12.0969 2.26598 11.5029C2.82598 10.8749 3.42598 10.2709 4.06598 9.69089C4.69798 9.11089 5.36598 8.55789 6.06998 8.03189C6.77198 7.50789 7.50398 7.01189 8.26598 6.54389C9.81191 5.591 11.4381 4.7749 13.126 4.10489C14.8634 3.40776 16.6542 2.85195 18.481 2.44289C20.34 2.02071 22.2284 1.7409 24.13 1.60589C26.9969 1.39875 29.8779 1.50437 32.722 1.92089C34.593 2.19892 36.4402 2.61812 38.248 3.17489C40.0098 3.72379 41.7252 4.41196 43.378 5.23289C44.9733 6.03389 46.4968 6.97033 47.932 8.03189C48.634 8.55989 49.303 9.11289 49.939 9.69089C50.575 10.2689 51.175 10.8729 51.739 11.5029M33.001 38.5839C33.001 40.1752 32.3688 41.7013 31.2436 42.8265C30.1184 43.9517 28.5923 44.5839 27.001 44.5839C25.4097 44.5839 23.8836 43.9517 22.7583 42.8265C21.6331 41.7013 21.001 40.1752 21.001 38.5839C21.001 36.9926 21.6331 35.4665 22.7583 34.3413C23.8836 33.216 25.4097 32.5839 27.001 32.5839C28.5923 32.5839 30.1184 33.216 31.2436 34.3413C32.3688 35.4665 33.001 36.9926 33.001 38.5839Z" fill="url(#paint2_linear_213_300)"/>
</g>
<path d="M34.0449 24.7567C34.327 25.0344 34.4879 25.4123 34.4925 25.8081C34.4971 26.2039 34.3451 26.5855 34.0696 26.8697C33.7941 27.1539 33.4175 27.3177 33.0218 27.3253C32.626 27.333 32.2433 27.184 31.957 26.9107C31.8265 26.7846 31.6903 26.6645 31.5489 26.5507C30.8613 26.0199 30.1004 25.5915 29.2899 25.2787C27.6018 24.6347 25.8076 24.3141 24.0009 24.3337C20.9349 24.3337 18.1479 25.1887 16.4529 26.5507C16.3069 26.6707 16.1709 26.7907 16.0449 26.9107C15.7586 27.184 15.3759 27.333 14.9801 27.3253C14.5844 27.3177 14.2078 27.1539 13.9323 26.8697C13.6568 26.5855 13.5048 26.2039 13.5094 25.8081C13.514 25.4123 13.6749 25.0344 13.9569 24.7567C14.1509 24.5687 14.3569 24.3867 14.5749 24.2107C16.8369 22.3927 20.2899 21.3337 24.0009 21.3337C26.2959 21.3337 28.5009 21.7357 30.3969 22.4887C31.5519 22.9477 32.5749 23.5267 33.4269 24.2107C33.6449 24.3887 33.8509 24.5707 34.0449 24.7567ZM41.5689 16.9537C41.7198 17.091 41.841 17.2577 41.9252 17.4434C42.0094 17.6292 42.0549 17.8302 42.0588 18.0341C42.0627 18.238 42.025 18.4406 41.9479 18.6295C41.8709 18.8183 41.7561 18.9895 41.6107 19.1325C41.4652 19.2755 41.2922 19.3873 41.102 19.4611C40.9119 19.535 40.7087 19.5692 40.5049 19.5619C40.301 19.5545 40.1008 19.5056 39.9165 19.4183C39.7322 19.3309 39.5677 19.2068 39.4329 19.0537C39.0983 18.7173 38.7479 18.3969 38.3829 18.0937C37.999 17.776 37.5996 17.4776 37.186 17.1997C35.8327 16.2927 34.3727 15.5561 32.8389 15.0067C31.7378 14.6057 30.6088 14.2858 29.4609 14.0497C28.2683 13.8064 27.0605 13.644 25.8459 13.5637C24.0054 13.4422 22.1574 13.5035 20.3289 13.7467C19.1421 13.9104 17.9675 14.153 16.8129 14.4727C15.7155 14.7858 14.6418 15.1768 13.5999 15.6427C12.6316 16.086 11.7006 16.6067 10.8159 17.1997C10.3959 17.4857 9.99695 17.7837 9.61895 18.0937C9.24695 18.4037 8.89695 18.7237 8.56895 19.0537C8.2854 19.3119 7.91375 19.4517 7.53035 19.4443C7.14695 19.437 6.78092 19.2831 6.50747 19.0142C6.23403 18.7454 6.07392 18.382 6.06006 17.9988C6.0462 17.6156 6.17964 17.2416 6.43295 16.9537C6.82895 16.5497 7.25295 16.1597 7.70495 15.7837C8.15495 15.4117 8.62895 15.0567 9.12695 14.7187C10.1477 14.0229 11.2279 13.4186 12.3549 12.9127C13.5321 12.3721 14.7511 11.9276 15.9999 11.5837C17.288 11.2166 18.6017 10.9459 19.9299 10.7737C21.2792 10.5914 22.6394 10.5012 24.0009 10.5037C25.3625 10.5012 26.7226 10.5914 28.0719 10.7737C29.3986 10.9557 30.7115 11.2263 32.0019 11.5837C33.2472 11.9387 34.4654 12.3829 35.6469 12.9127C36.7701 13.4263 37.8496 14.0303 38.875 14.7187C39.3729 15.0587 39.847 15.4137 40.297 15.7837C40.749 16.1597 41.1729 16.5497 41.5689 16.9537Z" fill="url(#paint3_linear_213_300)"/>
<path d="M47.62 9.49886C47.7514 9.64581 47.8526 9.81719 47.9177 10.0032C47.9829 10.1893 48.0108 10.3863 47.9998 10.5831C47.9888 10.78 47.9391 10.9727 47.8536 11.1503C47.7681 11.3279 47.6485 11.487 47.5015 11.6184C47.3546 11.7497 47.1832 11.8509 46.9972 11.9161C46.8111 11.9812 46.6141 12.0091 46.4173 11.9981C46.2204 11.9871 46.0277 11.9374 45.8501 11.8519C45.6725 11.7664 45.5134 11.6468 45.3821 11.4999C44.9151 10.9796 44.4225 10.483 43.9061 10.0119C43.3701 9.52693 42.8125 9.06646 42.235 8.63186C41.0143 7.73051 39.7197 6.93369 38.3651 6.24986C36.9337 5.53184 35.4445 4.93573 33.9131 4.46786C32.3272 3.97577 30.7052 3.60865 29.0621 3.36986C27.3865 3.1217 25.6949 2.99836 24.0011 3.00086C22.3075 3.00466 20.6163 3.12796 18.9401 3.36986C17.2977 3.61331 15.6761 3.98035 14.0891 4.46786C12.5608 4.94323 11.0731 5.54013 9.64005 6.25286C8.95135 6.59788 8.27774 6.97223 7.62105 7.37486C6.98376 7.76575 6.36509 8.18621 5.76705 8.63486C5.17905 9.07486 4.62205 9.53486 4.09605 10.0149C3.57005 10.4929 3.07805 10.9879 2.62005 11.4999C2.48867 11.6468 2.32962 11.7664 2.152 11.8519C1.97438 11.9374 1.78166 11.9871 1.58485 11.9981C1.38803 12.0091 1.19098 11.9812 1.00493 11.9161C0.818891 11.8509 0.647503 11.7497 0.500553 11.6184C0.353604 11.487 0.233972 11.3279 0.148489 11.1503C0.0630054 10.9727 0.0133444 10.78 0.00234067 10.5831C-0.00866307 10.3863 0.0192057 10.1893 0.0843569 10.0032C0.149508 9.81719 0.250666 9.64581 0.382053 9.49886C0.910053 8.91086 1.47405 8.34286 2.07405 7.79486C2.67405 7.24686 3.30605 6.72586 3.97005 6.23186C4.63405 5.73386 5.32805 5.26286 6.05205 4.81886C7.52705 3.91153 9.07784 3.13363 10.6871 2.49385C12.35 1.82551 14.0647 1.29375 15.8141 0.903856C17.599 0.498354 19.4122 0.229575 21.2381 0.0998553C23.9948 -0.100125 26.7651 0.000467464 29.5001 0.399856C31.2948 0.666689 33.0669 1.06883 34.8011 1.60286C36.486 2.12666 38.1263 2.78477 39.706 3.57086C40.48 3.95886 41.229 4.37486 41.953 4.81886C42.673 5.26286 43.3661 5.73286 44.0321 6.22886C44.698 6.72686 45.33 7.24886 45.9281 7.79486C46.528 8.34286 47.092 8.91086 47.62 9.49886ZM29.2511 35.5839C29.2511 36.2733 29.1153 36.956 28.8514 37.5929C28.5876 38.2299 28.2009 38.8087 27.7134 39.2962C27.2259 39.7837 26.6471 40.1704 26.0101 40.4342C25.3732 40.6981 24.6905 40.8339 24.0011 40.8339C23.3116 40.8339 22.6289 40.6981 21.992 40.4342C21.355 40.1704 20.7762 39.7837 20.2887 39.2962C19.8012 38.8087 19.4145 38.2299 19.1507 37.5929C18.8868 36.956 18.7511 36.2733 18.7511 35.5839C18.7511 34.1915 19.3042 32.8561 20.2887 31.8715C21.2733 30.887 22.6087 30.3339 24.0011 30.3339C25.3934 30.3339 26.7288 30.887 27.7134 31.8715C28.6979 32.8561 29.2511 34.1915 29.2511 35.5839Z" fill="url(#paint4_linear_213_300)"/>
<defs>
<linearGradient id="paint0_linear_213_300" x1="27.0011" y1="22.834" x2="27.0011" y2="31.8502" gradientUnits="userSpaceOnUse">
<stop stop-color="#E5BC4A"/>
<stop offset="1" stop-color="#F48F27"/>
</linearGradient>
<linearGradient id="paint1_linear_213_300" x1="26.985" y1="12.0039" x2="26.985" y2="24.0707" gradientUnits="userSpaceOnUse">
<stop stop-color="#E5BC4A"/>
<stop offset="1" stop-color="#F48F27"/>
</linearGradient>
<linearGradient id="paint2_linear_213_300" x1="26.9828" y1="1.50293" x2="26.9828" y2="44.5839" gradientUnits="userSpaceOnUse">
<stop stop-color="#E5BC4A"/>
<stop offset="1" stop-color="#F48F27"/>
</linearGradient>
<linearGradient id="paint3_linear_213_300" x1="24.0591" y1="10.5037" x2="24.0591" y2="27.3256" gradientUnits="userSpaceOnUse">
<stop stop-color="#E5BC4A"/>
<stop offset="1" stop-color="#F48F27"/>
</linearGradient>
<linearGradient id="paint4_linear_213_300" x1="24.0011" y1="0" x2="24.0011" y2="40.8339" gradientUnits="userSpaceOnUse">
<stop stop-color="#E5BC4A"/>
<stop offset="1" stop-color="#F48F27"/>
</linearGradient>
</defs>
</svg>
